<?xml version="1.0" encoding="UTF-8" standalone="no"?>
<!-- Created with Inkscape (http://www.inkscape.org/) -->

<svg
   xmlns:dc="http://purl.org/dc/elements/1.1/"
   xmlns:cc="http://creativecommons.org/ns#"
   xmlns:rdf="http://www.w3.org/1999/02/22-rdf-syntax-ns#"
   xmlns:svg="http://www.w3.org/2000/svg"
   xmlns="http://www.w3.org/2000/svg"
   xmlns:xlink="http://www.w3.org/1999/xlink"
   xmlns:sodipodi="http://sodipodi.sourceforge.net/DTD/sodipodi-0.dtd"
   xmlns:inkscape="http://www.inkscape.org/namespaces/inkscape"
   width="600mm"
   height="700mm"
   viewBox="0 0 600 700"
   version="1.1"
   id="svg8"
   inkscape:version="0.92.4 5da689c313, 2019-01-14"
   sodipodi:docname="logo.svg"
   inkscape:export-filename="C:\Users\SUPORTE05\Desktop\logo.png"
   inkscape:export-xdpi="96"
   inkscape:export-ydpi="96">
  <title
     id="title953">SEVEN SOFTWARES DESENVOLVIMENTO</title>
  <defs
     id="defs2">
    <inkscape:path-effect
       effect="bspline"
       id="path-effect1124"
       is_visible="true"
       weight="33.333333"
       steps="2"
       helper_size="0"
       apply_no_weight="true"
       apply_with_weight="true"
       only_selected="false" />
    <linearGradient
       inkscape:collect="always"
       id="linearGradient986">
      <stop
         style="stop-color:#ffff00;stop-opacity:1"
         offset="0"
         id="stop982" />
      <stop
         style="stop-color:#ff0000;stop-opacity:1"
         offset="1"
         id="stop984" />
    </linearGradient>
    <linearGradient
       inkscape:collect="always"
       xlink:href="#linearGradient986"
       id="linearGradient4644"
       x1="186.19107"
       y1="384.85181"
       x2="191.48274"
       y2="770.38751"
       gradientUnits="userSpaceOnUse" />
    <linearGradient
       inkscape:collect="always"
       xlink:href="#linearGradient986"
       id="linearGradient4693"
       gradientUnits="userSpaceOnUse"
       x1="186.19107"
       y1="384.85181"
       x2="191.48274"
       y2="770.38751"
       gradientTransform="translate(301.58515,-100.20364)" />
    <linearGradient
       inkscape:collect="always"
       xlink:href="#linearGradient986"
       id="linearGradient4794"
       x1="686.68506"
       y1="360.00137"
       x2="646.54413"
       y2="599.85425"
       gradientUnits="userSpaceOnUse"
       gradientTransform="translate(-368.90476,-331.10715)" />
  </defs>
  <sodipodi:namedview
     id="base"
     pagecolor="#ffffff"
     bordercolor="#666666"
     borderopacity="1.0"
     inkscape:pageopacity="0.0"
     inkscape:pageshadow="2"
     inkscape:zoom="0.35000001"
     inkscape:cx="1081.6094"
     inkscape:cy="1156.6558"
     inkscape:document-units="mm"
     inkscape:current-layer="layer3"
     showgrid="false"
     inkscape:window-width="1920"
     inkscape:window-height="1048"
     inkscape:window-x="0"
     inkscape:window-y="0"
     inkscape:window-maximized="1"
     inkscape:pagecheckerboard="false" />
  <metadata
     id="metadata5">
    <rdf:RDF>
      <cc:Work
         rdf:about="">
        <dc:format>image/svg+xml</dc:format>
        <dc:type
           rdf:resource="http://purl.org/dc/dcmitype/StillImage" />
        <dc:title>SEVEN SOFTWARES DESENVOLVIMENTO</dc:title>
        <dc:date>21/08/2019</dc:date>
        <dc:creator>
          <cc:Agent>
            <dc:title>GREGORIO HONORATO</dc:title>
          </cc:Agent>
        </dc:creator>
        <dc:rights>
          <cc:Agent>
            <dc:title>USO EXCLUSIVO SEVEN SOFTWARES DESENVOLVIMENTO</dc:title>
          </cc:Agent>
        </dc:rights>
        <dc:language>PORTUGUES</dc:language>
        <dc:subject>
          <rdf:Bag>
            <rdf:li>SEVEN SOFTWARES DESENVOLVIMENTO</rdf:li>
          </rdf:Bag>
        </dc:subject>
      </cc:Work>
    </rdf:RDF>
  </metadata>
  <g
     inkscape:groupmode="layer"
     id="layer2"
     inkscape:label="fundo"
     style="display:inline"
     transform="translate(0,490)"
     sodipodi:insensitive="true">
    <path
       style="fill:#ffd42a;fill-opacity:1;stroke:#aa4400;stroke-width:6.3499999;stroke-miterlimit:4;stroke-dasharray:none"
       d="M 308.89055,-447.0334 A 279.95581,279.95581 0 0 0 28.935041,-167.07736 279.95581,279.95581 0 0 0 308.89055,112.87816 279.95581,279.95581 0 0 0 588.8466,-167.07736 279.95581,279.95581 0 0 0 308.89055,-447.0334 Z m -11.72022,91.44713 a 179.48553,179.48553 0 0 1 81.84515,17.63406 179.48553,179.48553 0 0 1 84.11887,239.487203 179.48553,179.48553 0 0 1 -239.48718,84.119402 179.48553,179.48553 0 0 1 -84.1189,-239.487185 179.48553,179.48553 0 0 1 157.64206,-101.75348 z"
       id="path846"
       inkscape:connector-curvature="0"
       inkscape:export-filename="C:\Users\SUPORTE05\Desktop\rect4607.png"
       inkscape:export-xdpi="96"
       inkscape:export-ydpi="96" />
    <path
       style="fill:#ff0000;fill-opacity:1;stroke:#ffd42a;stroke-width:0.52337712"
       d="M 308.89055,-433.53758 A 266.46015,266.46015 0 0 0 42.430321,-167.07736 266.46015,266.46015 0 0 0 308.89055,99.382848 266.46015,266.46015 0 0 0 575.35076,-167.07736 266.46015,266.46015 0 0 0 308.89055,-433.53758 Z m -11.72022,77.95131 a 179.48553,179.48553 0 0 1 81.84515,17.63406 179.48553,179.48553 0 0 1 84.11887,239.487203 179.48553,179.48553 0 0 1 -239.48718,84.119402 179.48553,179.48553 0 0 1 -84.1189,-239.487185 179.48553,179.48553 0 0 1 157.64206,-101.75348 z"
       id="circle848"
       inkscape:connector-curvature="0"
       inkscape:export-filename="C:\Users\SUPORTE05\Desktop\rect4607.png"
       inkscape:export-xdpi="96"
       inkscape:export-ydpi="96" />
    <circle
       style="fill:none;fill-opacity:1;stroke:#ffff00;stroke-width:8.00240993;stroke-miterlimit:4;stroke-dasharray:none"
       id="circle850"
       cx="-195.40483"
       cy="289.21591"
       r="179.48553"
       transform="rotate(-154.35363)"
       inkscape:export-filename="C:\Users\SUPORTE05\Desktop\rect4607.png"
       inkscape:export-xdpi="96"
       inkscape:export-ydpi="96" />
    <circle
       transform="rotate(52.034508)"
       r="179.48553"
       cy="-342.20792"
       cx="51.270153"
       id="circle910"
       style="fill:none;fill-opacity:1;stroke:none;stroke-width:8.00240993;stroke-miterlimit:4;stroke-dasharray:none"
       inkscape:export-filename="C:\Users\SUPORTE05\Desktop\rect4607.png"
       inkscape:export-xdpi="96"
       inkscape:export-ydpi="96" />
    <circle
       transform="rotate(-154.35363)"
       r="179.48553"
       cy="289.21591"
       cx="-195.40483"
       id="circle930"
       style="fill:none;fill-opacity:1;stroke:none;stroke-width:8.00240993;stroke-miterlimit:4;stroke-dasharray:none"
       inkscape:export-filename="C:\Users\SUPORTE05\Desktop\rect4607.png"
       inkscape:export-xdpi="96"
       inkscape:export-ydpi="96" />
    <circle
       style="fill:none;fill-opacity:1;stroke:none;stroke-width:7.90351582;stroke-miterlimit:4;stroke-dasharray:none"
       id="circle932"
       cx="-319.31787"
       cy="142.97926"
       r="177.26744"
       transform="matrix(-0.58888139,0.80821947,0.80821947,0.58888139,0,0)"
       inkscape:export-filename="C:\Users\SUPORTE05\Desktop\rect4607.png"
       inkscape:export-xdpi="96"
       inkscape:export-ydpi="96" />
    <circle
       transform="rotate(-154.35363)"
       r="172.46159"
       cy="288.71158"
       cx="-195.22771"
       id="circle953"
       style="fill:none;fill-opacity:1;stroke:#aa4400;stroke-width:7.6892457;stroke-miterlimit:4;stroke-dasharray:none"
       inkscape:export-filename="C:\Users\SUPORTE05\Desktop\rect4607.png"
       inkscape:export-xdpi="96"
       inkscape:export-ydpi="96" />
    <circle
       style="fill:none;fill-opacity:1;stroke:none;stroke-width:7.6892457;stroke-miterlimit:4;stroke-dasharray:none"
       id="circle4612"
       cx="40.384171"
       cy="424.08679"
       r="172.46159"
       transform="matrix(-0.82597667,0.5637043,0.5637043,0.82597667,0,0)" />
    <ellipse
       style="fill:none;fill-opacity:1;stroke:none;stroke-width:0.27807254"
       id="path4704"
       cx="217.11728"
       cy="256.51337"
       rx="282.77274"
       ry="282.90637"
       transform="matrix(-0.7890672,0.61430689,0.61430689,0.7890672,0,0)" />
  </g>
  <g
     inkscape:groupmode="layer"
     id="layer3"
     inkscape:label="texto"
     style="display:none"
     transform="translate(0,490)"
     sodipodi:insensitive="true">
    <path
       style="font-style:normal;font-variant:normal;font-weight:normal;font-stretch:normal;font-size:70.84736633px;line-height:1.25;font-family:Impact;-inkscape-font-specification:Impact;letter-spacing:0px;word-spacing:0px;fill:#a05a2c;fill-opacity:1;stroke:none;stroke-width:1.26891649"
       d="m 529.49563,13.832307 c -10.88196,1.17949 -19.15531,10.37676 -22.54883,20.289074 -8.55298,3.26795 -12.88833,12.28438 -20.7207,16.77343 -2.24118,1.44104 -3.96363,3.94414 -3.22461,6.72266 -14.38019,2.98471 -23.68925,15.81727 -37.14555,20.98985 -8.33083,3.647137 -15.99151,8.802137 -24.18967,12.531467 -3.92292,0.62135 -6.83861,3.43627 -7.27025,7.50407 -0.84597,-3.57072 -3.9211,-5.118 -6.95117,-3.07617 -4.95288,3.36767 -11.25426,2.5687 -15.99805,6.091792 1.44072,6.29509 0.95158,6.12877 -4.55859,1.72071 -5.03473,-0.6624 -9.80572,2.8537 -14.9668,2.75781 -18.41113,3.67647 -37.63665,4.58639 -56.01953,6.02539 -3.26178,2.88196 -6.5497,-2.37813 -10.18945,-2.06055 -8.01292,-1.81962 -16.64719,-0.12012 -23.13477,5.10743 -7.51371,-10.83728 -24.67605,-14.63398 -35.40039,-6.69727 -7.91103,8.32796 -9.30792,23.98556 0.004,31.89063 5.88595,5.74821 2.45509,5.27864 -3.3086,2.81054 -3.65094,-1.54074 -8.58697,0.35243 -7.81836,4.82617 -1.96617,8.42674 -1.05115,19.49264 8.1543,23.23047 9.74339,5.52043 24.13681,5.82684 31.35352,-3.92968 4.04479,3.8625 6.72307,9.34822 12.6289,10.90234 11.1245,4.80226 25.1645,0.4829 30.89397,-10.40454 2.68703,-2.9934 -0.5347,5.58986 0.84822,8.33618 1.29087,5.50521 7.22862,2.03865 11.03898,2.84303 3.64847,0.0347 7.56687,0.18199 10.83016,-1.73366 -0.40959,-8.50393 -1.20152,-16.9947 -1.16406,-25.51562 4.80971,1.89698 11.27734,-1.08615 10.69692,-6.76691 1.90534,-8.23776 5.05325,5.33421 5.12339,8.75129 1.31735,7.6568 2.60829,15.30981 3.92188,22.96289 7.08984,-1.1504 14.17968,-2.30079 21.26953,-3.45118 -2.00916,-14.43389 -5.85094,-28.77738 -6.67276,-43.26984 0.67527,-5.4302 5.46539,5.93488 6.76297,8.76383 5.08406,10.77106 10.60838,21.32738 15.7008,32.0939 7.88802,-2.60677 15.77604,-5.21354 23.66407,-7.82031 -1.41367,-2.51882 -0.80629,-8.58859 3.16796,-5.92969 1.81439,2.52543 2.77105,5.46654 6.35041,2.78107 6.7472,-2.80488 14.91533,-3.84401 20.86834,-7.62482 2.27238,-1.72283 5.56499,-0.98042 7.42969,-3.59375 3.41869,-2.84698 8.55789,-3.07501 11.64258,-5.96875 1.73368,-2.53403 -3.5475,-11.25343 -0.047,-8.08941 2.21634,3.57675 6.77773,6.7193 10.47864,3.23199 10.79842,-6.63901 21.65938,-13.01255 31.79551,-20.93326 4.55609,-3.97708 11.10361,-6.88769 14.76699,-11.17611 0.9879,-3.00414 5.20158,-1.65247 6.1548,-4.88581 6.58239,-6.149792 14.34788,-12.241432 20.20848,-18.426692 -2.92442,-1.28973 -3.46386,-6.377317 0.5586,-5.999997 12.18096,-1.83259 23.28887,-14.65921 20.68359,-27.16992 -3.71301,-9.1435 -13.08877,-15.42349 -22.5918,-17.050794 -5.50197,-0.17271 -10.7096,1.973074 -16.1582,2.378914 2.64512,-3.794354 10.58919,-6.815654 8.66602,-12.462894 -4.64249,-3.42505 -9.37751,-8.38243 -15.58399,-8.2793 z m -424.25781,2.35938 c -11.607388,2.24891 -21.576646,13.55269 -19.853516,25.664064 -1.43583,3.50511 -3.68257,2.12657 -4.77734,-0.83398 -1.96918,-3.04224 -6.18085,-3.56606 -8.14649,-0.15235 -7.03872,5.38046 -13.38003,15.11636 -8.23632,23.78906 4.32262,10.01978 14.777,17.417257 25.955068,16.031257 -4.114898,2.74848 -5.037218,8.83613 -0.28515,11.40234 7.54898,4.62386 13.641718,11.713702 20.619138,17.054692 3.25527,-4.07956 7.15508,-7.63644 11.64844,-10.304692 -0.18364,5.620022 -5.93715,9.770512 -5.58008,15.216802 8.1424,4.63462 15.8917,10.54377 23.80272,15.71093 3.51579,-2.84665 5.66821,-8.22192 10.12697,-9.5039 4.03392,1.61288 -0.0375,6.46233 -1.44499,8.89527 -0.79259,1.5028 -4.62239,5.16115 -0.66439,5.3352 10.59595,5.56419 21.49062,11.24861 32.01367,16.53125 2.66965,3.31327 7.74708,2.2013 11.13477,4.66211 3.01082,-0.42601 5.13574,-3.13399 7.98242,-4.09376 -1.45008,3.42341 -0.51375,8.01935 4.00586,7.75977 4.314,1.34315 9.10305,6.47738 13.5957,3.26172 8.25528,-20.13449 17.29245,-41.45289 24.25,-61.21094 -5.98121,-1.17845 -11.26221,-7.427932 -17.57617,-4.853512 -2.0653,4.177692 -5.52433,0.20967 -5.37891,-2.95508 -4.54658,-5.32168 -12.72095,-4.88105 -18.186,-9.07859 -10.76531,-5.062487 -21.32771,-11.296387 -31.1011,-17.646017 -3.98977,0.9545 -4.10748,-5.44184 -7.95118,-5.60938 -11.59988,-8.26294 -22.12048,-18.35027 -32.70312,-27.49023 -4.02112,-9.068734 -12.49512,-18.355544 -23.25,-17.582034 z m 4.91211,33.234374 c 2.81858,1.27501 6.54327,4.95308 2.86719,7.29297 -1.69748,3.68488 -6.43479,1.10245 -5.08008,-2.27734 -0.29611,-1.88741 -0.7732,-5.27221 2.21289,-5.01563 z m 403.36914,1.02344 c 3.15947,0.37696 7.39497,5.06768 3.15625,7.27344 -4.14204,2.86732 -9.49301,-7.10493 -3.15625,-7.27344 z m 22.95117,5.69336 c 4.56161,1.27193 -1.19121,7.61207 -2.98628,6.86453 -3.02366,-0.72165 -5.31671,-5.99458 -0.9727,-6.35086 1.34688,0.0823 2.6115,-0.66608 3.95898,-0.51367 z m -399.26953,8.32031 c 5.40186,2.11516 0.28082,10.48391 -4.05859,6.93946 -3.67848,-2.88521 0.6911,-7.88436 4.05859,-6.93946 z m 396.74023,1.79102 c 3.11406,1.25925 7.87427,5.65511 3.64258,8.57031 -3.63714,4.90795 -11.68596,-0.0339 -9.625,-5.48633 0.71225,-2.29635 3.84592,-4.10263 5.98242,-3.08398 z M 120.45462,82.857698 c 1.94837,2.74715 7.05354,3.34646 7.93603,5.5587 -0.30506,4.25767 -5.00554,9.77478 -9.21338,5.94326 -3.71802,-2.16088 -6.89557,-8.10938 -2.30273,-11.13477 1.04714,-0.44374 2.80463,-1.88315 3.58008,-0.36719 z m 71.0957,16.61328 c 5.36233,0.0277 5.79093,9.058782 -0.0566,8.376962 -5.76366,0.05 -4.91191,-7.968212 0.0566,-8.376962 z M 461.9429,114.02372 c 4.03363,6.58315 -10.0882,5.29491 -4.04493,-0.0605 1.3771,-0.53098 3.54338,-2.36205 4.04493,0.0605 z m -281.11133,6.79297 c 7.24385,-0.27265 6.92012,12.54836 -0.38086,11.52148 -6.14901,-0.18698 -7.28345,-9.76453 -1.33203,-11.2832 0.5546,-0.16 1.13551,-0.25177 1.71289,-0.23828 z m 162.32422,6.64258 c 3.29947,1.16839 8.89004,-1.80951 9.39257,3.16015 1.93291,2.51305 -0.16932,7.24873 -3.41796,4.89844 -4.02063,0.21651 -12.73616,-0.13074 -9.56836,-6.5625 0.80161,-1.13038 2.25881,-1.56253 3.59375,-1.49609 z m -70.72071,4.28515 c 2.86272,0.59178 5.60093,0.0772 4.98047,3.8711 0.46945,3.86076 -4.52084,3.60268 -5.68629,0.66187 -2.06266,-1.25003 -2.46474,-4.5642 0.70582,-4.53297 z"
       id="text4780"
       inkscape:connector-curvature="0"
       inkscape:export-filename="C:\Users\SUPORTE05\Desktop\rect4607.png"
       inkscape:export-xdpi="96"
       inkscape:export-ydpi="96" />
    <text
       xml:space="preserve"
       style="font-style:normal;font-weight:normal;font-size:57.59044266px;line-height:1.25;font-family:sans-serif;letter-spacing:0px;word-spacing:0px;fill:#000000;fill-opacity:1;stroke:none;stroke-width:1.43976104"
       id="text904"
       y="-0.52916664"
       transform="translate(1.0583333,-5.8208336)"
       inkscape:export-filename="C:\Users\SUPORTE05\Desktop\rect4607.png"
       inkscape:export-xdpi="96"
       inkscape:export-ydpi="96"><textPath
         xlink:href="#circle850"
         id="textPath906"><tspan
   style="stroke-width:1.43976104"
   id="tspan902"><tspan
     id="tspan900"
     style="font-style:normal;font-variant:normal;font-weight:normal;font-stretch:normal;font-family:Impact;-inkscape-font-specification:Impact;stroke-width:1.43976104"
     y="-381.42343"
     x="162.89888">DESENVOLVIMENTO</tspan></tspan></textPath></text>
    <flowRoot
       xml:space="preserve"
       id="flowRoot4596"
       style="font-style:normal;font-variant:normal;font-weight:normal;font-stretch:normal;font-size:40px;line-height:1.25;font-family:Impact;-inkscape-font-specification:Impact;letter-spacing:0px;word-spacing:0px;fill:#000000;fill-opacity:1;stroke:none"><flowRegion
         id="flowRegion4598"
         style="font-style:normal;font-variant:normal;font-weight:normal;font-stretch:normal;font-family:Impact;-inkscape-font-specification:Impact"><rect
           id="rect4600"
           width="1217.1428"
           height="377.14285"
           x="-480"
           y="919.4151"
           style="font-style:normal;font-variant:normal;font-weight:normal;font-stretch:normal;font-family:Impact;-inkscape-font-specification:Impact" /></flowRegion><flowPara
         id="flowPara4602" /></flowRoot>    <text
       xml:space="preserve"
       style="font-style:normal;font-variant:normal;font-weight:normal;font-stretch:normal;font-size:70.84736633px;line-height:1.25;font-family:Impact;-inkscape-font-specification:Impact;letter-spacing:0px;word-spacing:0px;fill:#000000;fill-opacity:1;stroke:none;stroke-width:1.1069901"
       id="text4758"
       transform="matrix(1.1614875,0,0,1.1312643,333.10568,-522.90199)"
       inkscape:export-filename="C:\Users\SUPORTE05\Desktop\rect4607.png"
       inkscape:export-xdpi="96"
       inkscape:export-ydpi="96"><textPath
         xlink:href="#path4704"
         id="textPath4760"><tspan
   style="stroke-width:1.1069901"
   id="tspan4756"><tspan
     style="stroke-width:1.1069901"
     id="tspan4754"
     y="757.30035"
     x="-217.49231">SEVEN SOFTWARES</tspan></tspan></textPath></text>
    <path
       style="font-style:normal;font-variant:normal;font-weight:normal;font-stretch:normal;font-size:70.84736633px;line-height:1.25;font-family:Impact;-inkscape-font-specification:Impact;letter-spacing:0px;word-spacing:0px;fill:url(#linearGradient4794);fill-opacity:1;stroke:none;stroke-width:1.26891649"
       d="m 532.19717,17.298817 c -9.30343,1.58008 -17.68856,10.36321 -17.92818,19.861204 0.36646,4.97906 1.78337,5.62231 5.26834,8.23162 5.17747,5.95802 13.5813,7.55629 20.83339,4.49176 6.32311,-1.58329 14.25144,-5.20685 19.59781,0.55792 4.53401,2.20666 6.50908,9.48868 0.79171,11.51592 -5.19456,1.78685 -8.6157,-6.48289 -12.24492,-5.54049 -3.23395,3.68084 -9.15415,7.71266 -2.43473,10.58037 4.96972,5.20067 13.51276,5.12728 18.53389,0.4198 6.54562,-4.93604 13.34287,-15.72037 5.83238,-22.61866 -5.69917,-6.16315 -14.14256,-11.635024 -22.89854,-8.08014 -6.68632,1.35457 -15.04051,6.69042 -20.82511,0.38887 -4.58334,-2.37645 -4.11834,-10.264464 1.66964,-10.329424 4.02297,-0.26913 6.80957,7.466284 9.45115,1.87969 3.65505,-3.1535 6.72798,-6.46676 0.9047,-8.73576 -1.94445,-1.28173 -4.07847,-2.76327 -6.55153,-2.62268 z m -423.28279,2.20287 c -9.225878,1.98827 -18.416768,11.18265 -15.940958,20.950494 0.40237,7.02081 4.52947,16.33444 -2.83793,21.40564 -2.846318,4.08125 -10.509328,5.02732 -11.821308,-0.75565 -1.13998,-5.25271 7.7365,-7.46794 7.26007,-11.09415 -3.3369,-3.47526 -6.63235,-10.04724 -10.46551,-3.73381 -6.17601,4.30059 -6.98297,12.72437 -2.46588,18.44933 4.14332,6.5935 14.08516,14.26936 21.861818,7.98514 7.041268,-4.67399 13.766018,-12.25085 11.245098,-21.02341 -0.48541,-6.66545 -4.82056,-15.38699 2.36155,-20.152854 3.02672,-4.11481 11.00196,-2.61191 10.29005,2.987244 -0.26586,3.91536 -8.49898,5.58056 -3.1643,8.86939 2.95862,5.12635 6.45183,6.57659 9.68859,1.02917 6.4116,-6.6697 -0.63972,-16.197754 -6.19308,-20.901874 -2.72397,-2.25678 -6.14633,-4.11019 -9.81821,-4.01466 z M 491.1572,54.193061 c 13.59757,14.4634 27.19514,28.926777 40.79271,43.390167 6.06831,-5.41254 12.13663,-10.82507 18.20495,-16.23762 -4.4796,-9.441187 -9.67732,-2.897667 -14.80974,2.15294 -4.26388,-4.534317 -8.53065,-9.078067 -12.79827,-13.613617 6.40721,-3.15973 9.93533,-10.59827 1.71817,-11.73738 -5.03124,7.64788 -9.62477,5.62276 -13.99642,-1.32125 -10.98088,-5.11535 6.02229,-9.22072 2.46077,-13.88278 -4.81825,-8.74492 -10.14523,2.60752 -15.33132,5.6837 -2.08029,1.85528 -4.16057,3.71056 -6.24085,5.56584 z M 94.364032,85.755778 c 6.137878,5.33668 12.275768,10.67336 18.413658,16.010032 9.19802,-5.287452 1.98994,-9.667972 -3.68616,-14.133992 4.2058,-4.58983 8.41317,-9.179917 12.61963,-13.769777 3.87399,5.8863 11.82476,8.563937 12.16412,0.486 -7.26912,-3.89944 -7.72987,-8.17366 -0.82786,-12.85338 4.02362,-8.80663 8.90984,-2.76303 13.71512,1.8855 1.85185,5.16328 -5.53839,12.06221 -7.22403,17.889787 -4.99571,9.78532 -9.99143,19.570652 -14.98715,29.355962 5.90952,4.02645 11.81904,8.05289 17.72856,12.07934 11.15913,-11.06321 20.86927,-23.778732 32.9452,-33.796492 5.69959,-2.52605 -2.81797,10.96207 -4.63119,14.442672 -5.00983,9.1034 -10.01966,18.20682 -15.0295,27.31023 7.25174,3.78562 14.50348,7.57123 21.75521,11.35683 7.66386,-7.23916 -0.39097,-9.85618 -6.9848,-12.89906 3.46095,-4.79659 5.70457,-13.52492 9.97353,-15.73277 4.75816,6.40998 14.47206,2.36547 9.89284,-3.37626 -9.58048,-1.94098 -5.79335,-7.823 -1.7794,-13.764202 2.16267,-8.86025 10.01846,0.6316 15.38115,2.09703 0.0283,5.568102 -4.8662,12.904942 -6.70978,19.145622 -3.80316,9.49783 -7.60631,18.99567 -11.40946,28.49349 8.16989,6.07244 11.2104,0.75919 13.06933,-7.17677 2.9146,-6.63623 4.66001,-13.85902 9.32787,-19.61563 1.77621,11.52046 -1.18079,23.13918 -1.5721,34.70462 7.7231,5.01646 12.51693,3.53168 13.83186,-5.67415 6.04996,-15.10925 12.09992,-30.2185 18.14988,-45.32774 -8.16987,-6.072212 -11.20809,-0.75438 -13.06811,7.17858 -2.86724,6.6246 -4.72179,13.74371 -9.19751,19.58289 -1.79845,-11.56418 0.66848,-23.2695 0.84616,-34.899072 -11.98703,-3.73631 -21.50187,-10.41973 -32.96402,-15.941547 -4.83039,-0.60613 -11.44193,-11.9417 -15.14388,-2.8581 -8.99517,9.496007 -16.54959,20.541387 -26.08243,29.349159 -6.62728,4.45766 0.34895,-8.100772 2.36893,-10.692382 5.91055,-9.89836 11.59078,-19.881817 17.20427,-29.961567 -10.53811,-6.32188 -18.21671,-14.91174 -27.8621,-22.78437 -13.40928,14.62984 -26.81856,29.25968 -40.227838,43.889517 z M 516.70312,47.387791 c 1.41035,-0.0694 -1.37756,-1.83691 0,0 z m -31.36017,13.82927 c -9.13394,2.34668 -15.99282,9.67437 -23.88308,14.40595 11.75325,15.923867 23.50651,31.847729 35.25976,47.771599 7.12647,-3.88151 12.91152,-7.97659 4.53898,-14.3255 -3.91101,-5.29709 -7.82049,-10.595232 -11.73249,-15.891622 3.12666,-3.12239 8.99685,-5.00701 11.69654,-0.28724 4.68539,5.82763 8.88897,12.011782 13.40702,17.963252 8.44248,-3.66076 10.27482,-8.37443 2.88191,-14.557542 -4.03713,-4.62228 -8.00201,-14.88229 -16.11425,-11.05721 -7.52368,2.99034 -9.73595,1.75203 -2.97177,-3.8379 6.06898,-4.049297 0.40471,-10.743257 -2.78803,-14.589327 -2.51824,-3.04311 -6.00542,-5.96047 -10.29459,-5.59446 z m -3.38692,9.28211 c 5.38208,0.91343 8.49373,6.96576 10.1063,11.577787 0.1455,3.28473 -3.42751,5.09546 -5.67812,6.84281 -3.73498,-5.06434 -7.47391,-10.125907 -11.20881,-15.190307 2.09174,-1.31077 4.14675,-3.16455 6.78063,-3.23029 z m -46.13736,18.685747 c 1.13545,5.41807 -15.10581,2.04315 -11.34719,9.37934 2.20631,13.710582 7.14851,27.111112 9.0958,40.696062 -1.55198,7.44029 -7.54125,-8.37865 -9.19046,-12.23633 -4.07023,-9.36171 -8.25181,-18.89457 -12.43897,-28.055402 -5.17451,2.549422 -15.95462,1.961082 -11.59684,9.866622 2.11358,12.46595 6.39433,24.69569 8.15411,37.09881 -1.49256,7.47868 -7.58965,-8.33854 -9.26622,-12.19074 -3.96175,-8.87822 -7.83131,-17.79497 -11.73673,-26.69676 -6.84792,3.29137 -11.49661,1.6544 -18.86378,3.47083 -14.67579,3.0829 -29.60977,3.88561 -44.56886,4.4657 1.10023,19.58206 2.20047,39.16413 3.30071,58.74621 8.15101,0.4687 15.28864,0.0527 11.74475,-9.68841 1.23847,-5.19246 -3.98604,-16.03178 1.33332,-17.65858 9.33056,4.08946 11.63392,-10.87256 1.89385,-7.64253 -8.75492,2.47765 -3.52183,-10.24481 -5.49857,-15.13573 2.33699,-2.77099 9.58817,-0.85705 13.71556,-1.88861 9.85994,-4.83436 8.6616,5.40628 10.04078,12.13333 2.08621,12.20055 4.17241,24.40109 6.25861,36.60162 8.1542,-0.40966 15.19978,-1.59073 10.57648,-10.89146 -2.33969,-13.68759 -4.68036,-27.37503 -7.01942,-41.06273 8.13311,-3.81152 11.66437,0.95252 13.84195,8.24166 6.08138,12.49317 12.16276,24.98636 18.24414,37.47953 4.84294,-3.3702 18.44317,-1.75796 15.17116,-9.74514 -1.4483,-10.92375 -5.75162,-21.63111 -4.95597,-32.69937 8.19366,9.71074 11.89475,22.24866 18.83788,32.84202 4.87269,-3.37875 18.66104,-1.83514 15.24839,-9.78824 -2.03744,-12.46968 -6.96759,-24.81247 -7.09483,-37.36592 2.27592,-4.69142 6.78317,9.17065 8.12426,12.67399 3.17633,8.18872 6.35265,16.37743 9.52898,24.56614 7.45762,-3.04751 14.35019,-6.28696 7.54521,-14.1797 -1.21013,-4.80505 11.14713,-10.00268 11.80286,-1.35504 0.61203,8.01687 16.58536,-1.00746 11.52696,-4.41837 -11.47056,-14.99103 -22.94112,-29.982052 -34.41167,-44.973059 -5.99875,3.136757 -11.9975,6.273497 -17.99625,9.410257 z m 17.33157,4.23561 c 5.40575,8.168652 10.89276,16.288012 16.61018,24.253692 -4.31164,1.519 -10.58566,8.53657 -11.5559,0.66948 -3.51659,-9.52693 -9.0975,-18.685472 -9.70023,-28.915742 1.54865,1.33087 3.0973,2.66172 4.64595,3.99257 z m -191.4821,14.372812 c -7.23855,-0.57206 -12.55866,5.50822 -12.9656,12.20661 -3.39564,8.78373 3.31026,15.89185 9.53104,21.15685 4.12024,3.52936 8.26361,8.29283 6.2861,14.05021 0.2652,4.92566 -5.23843,10.1887 -9.87945,6.36777 -4.17568,-3.512 1.51721,-10.50827 -1.11207,-13.11693 -5.75443,-1.74118 -11.6123,-3.15408 -10.79504,4.31458 -2.58155,8.98865 6.4439,15.47333 14.63162,16.3014 7.10817,1.61604 16.84723,-0.75246 17.74898,-9.05232 2.48038,-7.57505 2.59353,-16.78765 -4.47581,-22.11047 -4.52817,-5.00562 -13.39565,-9.42696 -10.63487,-17.44622 -0.14379,-5.05371 7.12587,-8.55513 10.04278,-3.68987 2.23639,3.27359 -3.30391,9.45995 2.99141,8.93702 5.64951,2.49045 9.39843,1.37406 8.35805,-4.91352 1.19303,-9.77633 -12.3538,-12.90311 -19.72714,-13.00511 z m 39.17525,5.10836 c -9.49974,-0.80673 -16.45048,7.6848 -15.75722,16.22216 -0.27684,12.07878 -3.30226,24.41887 -0.8212,36.2822 5.52386,13.04055 31.18268,12.29913 32.75531,-3.11761 0.99265,-13.10204 3.32312,-26.54128 1.62199,-39.67379 -2.29301,-7.2832 -10.69478,-9.98054 -17.79888,-9.71296 z m -16.95727,7.61173 c 7.4275,-5.78023 -5.31731,-7.09229 0,0 z m 18.66093,-1.38093 c 7.18642,0.3418 4.33199,9.60883 4.4362,13.9594 -1.44701,10.90836 -0.0636,22.40541 -3.07962,33.0212 -2.83169,4.48563 -10.12938,0.90972 -8.66124,-4.05001 1.16457,-13.42288 0.60425,-27.18766 3.18501,-40.41177 0.72408,-1.52172 2.40544,-2.52363 4.11965,-2.51882 z m -22.53558,13.24595 c 7.35427,4.07504 2.94188,-9.64284 0,0 z"
       id="text4770"
       inkscape:connector-curvature="0"
       inkscape:export-filename="C:\Users\SUPORTE05\Desktop\rect4607.png"
       inkscape:export-xdpi="96"
       inkscape:export-ydpi="96" />
  </g>
  <g
     inkscape:label="Camada 1"
     inkscape:groupmode="layer"
     id="layer1"
     transform="translate(0,403)"
     style="display:inline">
    <rect
       style="display:inline;fill:#502d16;fill-opacity:1;stroke:#784421;stroke-width:0.35005251"
       id="rect4596"
       width="437.15186"
       height="299.25076"
       x="97.287178"
       y="-176.30943"
       inkscape:export-filename="C:\Users\SUPORTE05\Desktop\rect4607.png"
       inkscape:export-xdpi="96"
       inkscape:export-ydpi="96" />
    <g
       id="g972"
       transform="matrix(1.1058802,0,0,1.1058802,-425.97422,-347.19912)"
       inkscape:export-filename="C:\Users\SUPORTE05\Desktop\rect4607.png"
       inkscape:export-xdpi="96"
       inkscape:export-ydpi="96">
      <g
         id="g1061"
         transform="matrix(1.2982457,0,0,1.3442599,-199.09893,-68.992013)">
        <g
           id="g1079"
           transform="translate(-10.481177,10.122405)">
          <g
             id="g846"
             style="display:inline;fill:#ffffff"
             transform="matrix(1.0399056,0,0,1.0399056,511.67855,32.027685)" />
          <g
             id="g1112"
             transform="matrix(1.0680949,0,0,1.0472186,-31.219637,-29.81125)">
            <rect
               y="177.58125"
               x="533.21484"
               height="181.76953"
               width="275.71161"
               id="rect815"
               style="display:inline;fill:#ffffff;fill-opacity:1;stroke:#000000;stroke-width:2.87533903;stroke-miterlimit:4;stroke-dasharray:none" />
            <rect
               y="177.58125"
               x="533.21484"
               height="29.461121"
               width="275.71161"
               id="rect825"
               style="display:inline;fill:#ffffff;fill-opacity:1;stroke:#000000;stroke-width:2.88115358;stroke-miterlimit:4;stroke-dasharray:none" />
            <circle
               transform="scale(1,-1)"
               r="6.6704421"
               cy="-192.03387"
               cx="795.58557"
               id="path827"
               style="display:inline;fill:#000000;fill-opacity:1;stroke:#ffffff;stroke-width:2.87533879;stroke-miterlimit:4;stroke-dasharray:none" />
            <circle
               style="display:inline;fill:#000000;fill-opacity:1;stroke:#ffffff;stroke-width:2.87533879;stroke-miterlimit:4;stroke-dasharray:none"
               id="circle829"
               cx="774.46246"
               cy="192.03387"
               r="6.6704421" />
            <circle
               r="6.6704421"
               cy="192.03387"
               cx="751.67181"
               id="circle831"
               style="display:inline;fill:#000000;fill-opacity:1;stroke:#ffffff;stroke-width:2.87533879;stroke-miterlimit:4;stroke-dasharray:none" />
            <g
               id="g917"
               transform="matrix(1.0399056,0,0,1.0399056,505.14401,101.38769)">
              <path
                 inkscape:connector-curvature="0"
                 id="path4540"
                 d="m 109.42015,191.23027 a 58.799296,58.799296 0 0 0 56.55417,42.76328 58.799296,58.799296 0 0 0 56.51541,-42.76328 z"
                 style="display:inline;fill:#cccccc;fill-opacity:1;stroke:#000000;stroke-width:6.76499987;stroke-miterlimit:4;stroke-dasharray:none" />
              <path
                 inkscape:connector-curvature="0"
                 id="path832"
                 d="m 141.38575,208.87026 a 37.952275,35.814116 0 0 0 -17.16846,3.91604 58.799296,58.799296 0 0 0 42.29147,17.99993 58.799296,58.799296 0 0 0 40.03321,-15.8843 37.952275,35.814116 0 0 0 -19.18591,-4.963 37.952275,35.814116 0 0 0 -22.23223,6.84299 37.952275,35.814116 0 0 0 -23.73808,-7.91166 z"
                 style="display:inline;fill:#ff0000;fill-opacity:1;stroke:none;stroke-width:0.26458332" />
            </g>
            <g
               id="g894"
               transform="matrix(0.75170502,0,0,0.75170502,-239.03192,-86.576728)"
               style="fill:#e6e6e6;stroke:#e6e6e6">
              <circle
                 r="32.38533"
                 cy="467.32169"
                 cx="1172.0726"
                 id="circle882"
                 style="display:inline;fill:#e6e6e6;fill-opacity:1;stroke:#e6e6e6;stroke-width:4.29535866;stroke-miterlimit:4;stroke-dasharray:none" />
              <circle
                 style="display:inline;fill:#e6e6e6;fill-opacity:1;stroke:#e6e6e6;stroke-width:5.1181078;stroke-miterlimit:4;stroke-dasharray:none"
                 id="circle884"
                 cx="1245.0625"
                 cy="463.35297"
                 r="38.588539" />
              <circle
                 style="display:inline;fill:#e6e6e6;fill-opacity:1;stroke:#e6e6e6;stroke-width:2.87533903;stroke-miterlimit:4;stroke-dasharray:none"
                 id="circle886"
                 cx="1175.4031"
                 cy="472.53629"
                 r="21.678936" />
              <circle
                 r="21.678936"
                 cy="472.55264"
                 cx="1237.2454"
                 id="circle888"
                 style="display:inline;fill:#e6e6e6;fill-opacity:1;stroke:#e6e6e6;stroke-width:2.87533903;stroke-miterlimit:4;stroke-dasharray:none" />
              <path
                 inkscape:connector-curvature="0"
                 id="path890"
                 d="m 1154.2366,408.52382 a 21.678936,21.678936 0 0 0 -21.6793,21.67929 21.678936,21.678936 0 0 0 3.269,11.41998 21.678936,21.678936 0 0 1 -0.2449,-3.10472 21.678936,21.678936 0 0 1 21.6787,-21.67878 21.678936,21.678936 0 0 1 18.4103,10.2588 21.678936,21.678936 0 0 0 -21.4338,-18.57457 z"
                 style="display:inline;fill:#e6e6e6;fill-opacity:1;stroke:#e6e6e6;stroke-width:2.87533903;stroke-miterlimit:4;stroke-dasharray:none" />
              <path
                 style="display:inline;fill:#e6e6e6;fill-opacity:1;stroke:#e6e6e6;stroke-width:2.87533903;stroke-miterlimit:4;stroke-dasharray:none"
                 d="m 1268.2091,401.58606 a 21.678936,21.678936 0 0 1 21.6793,21.67929 21.678936,21.678936 0 0 1 -3.269,11.41998 21.678936,21.678936 0 0 0 0.2449,-3.10472 21.678936,21.678936 0 0 0 -21.6787,-21.67878 21.678936,21.678936 0 0 0 -18.4103,10.2588 21.678936,21.678936 0 0 1 21.4338,-18.57457 z"
                 id="path892"
                 inkscape:connector-curvature="0" />
            </g>
            <g
               transform="matrix(0.75170502,0,0,0.75170502,-236.61636,-87.936368)"
               id="g1043">
              <circle
                 style="display:inline;fill:#ffffff;fill-opacity:1;stroke:#000000;stroke-width:4.29535866;stroke-miterlimit:4;stroke-dasharray:none"
                 id="circle1022"
                 cx="1172.0726"
                 cy="467.32169"
                 r="32.38533" />
              <circle
                 r="38.588539"
                 cy="463.35297"
                 cx="1245.0625"
                 id="circle1024"
                 style="display:inline;fill:#ffffff;fill-opacity:1;stroke:#000000;stroke-width:5.1181078;stroke-miterlimit:4;stroke-dasharray:none" />
              <circle
                 r="21.678936"
                 cy="472.53629"
                 cx="1175.4031"
                 id="circle1026"
                 style="display:inline;fill:#000000;fill-opacity:1;stroke:#ffffff;stroke-width:2.87533903;stroke-miterlimit:4;stroke-dasharray:none" />
              <circle
                 style="display:inline;fill:#000000;fill-opacity:1;stroke:#ffffff;stroke-width:2.87533903;stroke-miterlimit:4;stroke-dasharray:none"
                 id="circle1028"
                 cx="1237.2454"
                 cy="472.55264"
                 r="21.678936" />
              <path
                 style="display:inline;fill:#000000;fill-opacity:1;stroke:none;stroke-width:2.87533903;stroke-miterlimit:4;stroke-dasharray:none"
                 d="m 1154.2366,408.52382 a 21.678936,21.678936 0 0 0 -21.6793,21.67929 21.678936,21.678936 0 0 0 3.269,11.41998 21.678936,21.678936 0 0 1 -0.2449,-3.10472 21.678936,21.678936 0 0 1 21.6787,-21.67878 21.678936,21.678936 0 0 1 18.4103,10.2588 21.678936,21.678936 0 0 0 -21.4338,-18.57457 z"
                 id="circle1030"
                 inkscape:connector-curvature="0" />
              <path
                 inkscape:connector-curvature="0"
                 id="path1035"
                 d="m 1268.2091,401.58606 a 21.678936,21.678936 0 0 1 21.6793,21.67929 21.678936,21.678936 0 0 1 -3.269,11.41998 21.678936,21.678936 0 0 0 0.2449,-3.10472 21.678936,21.678936 0 0 0 -21.6787,-21.67878 21.678936,21.678936 0 0 0 -18.4103,10.2588 21.678936,21.678936 0 0 1 21.4338,-18.57457 z"
                 style="display:inline;fill:#000000;fill-opacity:1;stroke:none;stroke-width:2.87533903;stroke-miterlimit:4;stroke-dasharray:none" />
            </g>
          </g>
        </g>
      </g>
    </g>
    <circle
       style="fill:#999999;fill-opacity:1;stroke:none;stroke-width:12.66204166;stroke-miterlimit:4;stroke-dasharray:none"
       id="path1126"
       cx="371.50635"
       cy="-47.655979"
       r="5.5994124"
       inkscape:export-filename="C:\Users\SUPORTE05\Desktop\rect4607.png"
       inkscape:export-xdpi="96"
       inkscape:export-ydpi="96" />
    <circle
       r="5.5994124"
       cy="-49.194813"
       cx="299.26254"
       id="circle1128"
       style="fill:#999999;fill-opacity:1;stroke:none;stroke-width:12.66204166;stroke-miterlimit:4;stroke-dasharray:none"
       inkscape:export-filename="C:\Users\SUPORTE05\Desktop\rect4607.png"
       inkscape:export-xdpi="96"
       inkscape:export-ydpi="96" />
    <rect
       style="fill:#999999;fill-opacity:1;stroke:#999999;stroke-width:0.3519451"
       id="rect4605"
       width="418.32343"
       height="1.1946633"
       x="113.84347"
       y="-128.1823"
       inkscape:export-filename="C:\Users\SUPORTE05\Desktop\rect4607.png"
       inkscape:export-xdpi="96"
       inkscape:export-ydpi="96" />
    <rect
       y="-173.93454"
       x="113.84345"
       height="1.1946633"
       width="418.32343"
       id="rect4607"
       style="fill:#999999;fill-opacity:1;stroke:#999999;stroke-width:0.3519451"
       inkscape:export-filename="C:\Users\SUPORTE05\Desktop\rect4607.png"
       inkscape:export-xdpi="96"
       inkscape:export-ydpi="96" />
    <rect
       inkscape:export-ydpi="96"
       inkscape:export-xdpi="96"
       inkscape:export-filename="C:\Users\SUPORTE05\Desktop\rect4607.png"
       y="-532.19714"
       x="-128.18243"
       height="1.1949415"
       width="232.48125"
       id="rect878"
       style="fill:#999999;fill-opacity:1;stroke:#999999;stroke-width:0.26239973"
       transform="rotate(90)" />
    <rect
       transform="rotate(90)"
       style="fill:#999999;fill-opacity:1;stroke:#999999;stroke-width:0.11197329"
       id="rect880"
       width="41.232475"
       height="1.2268665"
       x="-173.9505"
       y="-532.28278"
       inkscape:export-filename="C:\Users\SUPORTE05\Desktop\rect4607.png"
       inkscape:export-xdpi="96"
       inkscape:export-ydpi="96" />
  </g>
</svg>
